<svg width="400" height="300" xmlns="http://www.w3.org/2000/svg">
  <rect width="400" height="300" fill="#f9f9f9"/>
  <text x="200" y="30" text-anchor="middle" font-size="20" font-family="Arial">ContainerLabPy Architecture</text>
  <rect x="150" y="60" width="100" height="40" fill="#cce5ff" stroke="#333"/>
  <text x="200" y="85" text-anchor="middle" font-size="14" font-family="Arial">User Test Code</text>
  <rect x="150" y="120" width="100" height="40" fill="#d4edda" stroke="#333"/>
  <text x="200" y="145" text-anchor="middle" font-size="14" font-family="Arial">ContainerLabPy Core</text>
  <rect x="50" y="180" width="100" height="40" fill="#fff3cd" stroke="#333"/>
  <text x="100" y="205" text-anchor="middle" font-size="14" font-family="Arial">Test Utilities</text>
  <rect x="250" y="180" width="100" height="40" fill="#f8d7da" stroke="#333"/>
  <text x="300" y="205" text-anchor="middle" font-size="14" font-family="Arial">Docker Engine</text>
  <rect x="250" y="240" width="100" height="40" fill="#e2e3e5" stroke="#333"/>
  <text x="300" y="265" text-anchor="middle" font-size="14" font-family="Arial">Container Instances</text>
  <line x1="200" y1="100" x2="200" y2="120" stroke="#333" stroke-width="2" marker-end="url(#arrow)"/>
  <line x1="200" y1="160" x2="300" y2="180" stroke="#333" stroke-width="2" marker-end="url(#arrow)"/>
  <line x1="300" y1="220" x2="300" y2="240" stroke="#333" stroke-width="2" marker-end="url(#arrow)"/>
  <line x1="200" y1="160" x2="100" y2="180" stroke="#333" stroke-width="2" marker-end="url(#arrow)"/>
  <line x1="100" y1="220" x2="200" y2="60" stroke="#333" stroke-width="2" marker-end="url(#arrow)"/>
  <defs>
    <marker id="arrow" markerWidth="10" markerHeight="10" refX="5" refY="5" orient="auto" markerUnits="strokeWidth">
      <path d="M0,0 L10,5 L0,10 L2,5 Z" fill="#333" />
    </marker>
  </defs>
</svg>
